<?xml version="1.0" encoding="UTF-8"?>
<svg id="_Слой_1" data-name="Слой 1" xmlns="http://www.w3.org/2000/svg" viewBox="0 0 256 256">
  <defs>
    <style>
      .cls-1 {
        fill: #213361;
      }

      .cls-2 {
        fill: #9cd7f7;
      }

      .cls-2, .cls-3 {
        fill-rule: evenodd;
      }

      .cls-3 {
        fill: #fff;
      }
    </style>
  </defs>
  <rect class="cls-1" width="256" height="256" rx="37.58" ry="37.58"/>
  <g>
    <path class="cls-2" d="m161.84,66.03h0c.68-1.14,2.74-1.14,3.88,0,.69.92.69,2.51,0,3.65l-33.12,31.76c-1.15,1.14-2.52,1.14-3.89,0-.68-1.14-.68-2.74,0-3.43l33.13-31.98Z"/>
    <path class="cls-2" d="m173.49,77.46h0c1.14-.68,3.2-.68,3.89,0,1.14,1.14,1.14,2.74,0,4.11l-32.44,31.75c-1.14.69-2.75.69-4.12,0-1.14-1.37-1.14-2.97,0-4.11l32.67-31.76Z"/>
    <path class="cls-2" d="m185.6,89.33h0c1.37-.68,2.74-.68,3.88,0,1.14,1.15,1.14,2.75,0,3.89l-32.9,31.75c-.68.91-2.74.91-3.42,0-1.14-1.14-1.14-2.74,0-3.88l32.44-31.76Z"/>
    <path class="cls-3" d="m161.38,197.84h0c1.6,0,2.74,1.37,2.74,2.74,0,1.6-1.14,2.98-2.74,2.98h-82.01c-1.6,0-2.74-1.37-2.74-2.98,0-1.37,1.14-2.74,2.74-2.74h82.01Z"/>
    <path class="cls-3" d="m148.81,53.47c1.61-1.37,3.89-1.37,5.49,0,1.6,1.37,1.6,3.66,0,5.26l-36.55,35.41-31.76,56.65,16.45,15.76,58.03-31.06,36.55-35.18c1.6-1.6,3.88-1.6,5.49,0,1.14,1.6,1.14,3.88,0,5.03l-36.78,35.64-1.14.92-105.99,56.42c-.91.46-1.14.46-2.05.46h-.24c-.46,0-.91,0-1.6-.46-.68-.68-.68-.46-1.6-1.6,0-.23-.46-.68-.46-1.6v-.46c0-.23.46-.69.46-1.37l58.48-103.26.46-.68,36.78-35.86Z"/>
  </g>
</svg>